<?xml version='1.0' encoding='utf-8'?>
<!DOCTYPE html PUBLIC "-//W3C//DTD XHTML 1.0 Strict//EN" "http://www.w3.org/TR/xhtml1/DTD/xhtml1-strict.dtd">
<X3D xmlns:xsi="http://www.w3.org/2001/XMLSchema-instance" profile="Immersive" version="3.2" xsi:noNamespaceSchemaLocation="http://www.web3d.org/specifications/x3d-3.2.xsd" width="1280px" height="1024px">
  <head>
    <meta name="generator" content="FreeCAD" />
    <meta name="author" content="" />
    <meta name="company" content="" />
  </head>
  <Scene>
    <Background skyColor="0.05 0.08 0.15" /><NavigationInfo avatarSize="0.25 1.6 0.75" speed="2" headlight="false" type="&quot;WALK&quot; &quot;ANY&quot;" /><Viewpoint DEF="GameStart_VP" description="GameStart" position="14.252000 1.600000 -3.543000" orientation="1.000000 0.000000 0.000000 0.082247" fieldOfView="1.047198" jump="true" centerOfRotation="14.252000 1.600000 -3.543000" /><DirectionalLight DEF="GameExport_GlobalLight" direction="-0.916990 -0.278255 -0.285837" intensity="1.1000" color="1.0000 1.0000 1.0000" /><Transform DEF="FreeCAD_mm_to_m" scale="0.001 0.001 0.001" rotation="1 0 0 -1.57079632679"><Group>
      <Group DEF="o0">
        <Group DEF="o1">
          <Transform DEF="o2" translation="22932.42 15715.146 3000" rotation="0 0 1  0" scale="1 1 1" scaleOrientation="0 0 1  0" center="0 0 0" />
        </Group>
        <Group DEF="o3">
          <Transform DEF="o4" translation="22932.42 17807.383 3000" rotation="0 0 1  0" scale="1 1 1" scaleOrientation="0 0 1  0" center="0 0 0" />
        </Group>
        <Group DEF="o5">
          <Transform DEF="o6" translation="13143.42 20601.822 3000" rotation="0 0 1  0" scale="1 1 1" scaleOrientation="0 0 1  0" center="0 0 0" />
        </Group>
        <Group DEF="o7">
          <Transform DEF="o8" translation="15175.42 20601.822 3000" rotation="0 0 1  0" scale="1 1 1" scaleOrientation="0 0 1  0" center="0 0 0" />
        </Group>
        <Group DEF="o9">
          <Transform DEF="o10" translation="13143.42 22798.557 3000" rotation="0 0 1  0" scale="1 1 1" scaleOrientation="0 0 1  0" center="0 0 0" />
        </Group>
        <Group DEF="o11">
          <Transform DEF="o12" translation="15175.42 22798.557 3000" rotation="0 0 1  0" scale="1 1 1" scaleOrientation="0 0 1  0" center="0 0 0" />
        </Group>
        <Group DEF="o13">
          <Transform DEF="o14" translation="19139.086 9740.9756 3000" rotation="0 0 1  0" scale="1 1 1" scaleOrientation="0 0 1  0" center="0 0 0" />
        </Group>
        <Group DEF="o15">
          <Transform DEF="o16" translation="21002.42 9758.4756 3000" rotation="-0 -0 -1.156041e-008  6.2831855" scale="1 1 1" scaleOrientation="0 0 1  0" center="0 0 0" />
        </Group>
        <Group DEF="o17">
          <Transform DEF="o18" translation="22870.754 9758.4756 3000" rotation="-0 -0 -6.4806209e-009  6.2831855" scale="1 1 1" scaleOrientation="0 0 1  0" center="0 0 0" />
        </Group>
        <Group DEF="o19">
          <Transform DEF="o20" translation="9507.4199 22155.424 3000" rotation="0 0 1  0" scale="1 1 1" scaleOrientation="0 0 1  0" center="0 0 0" />
        </Group>
        <Group DEF="o21">
          <Transform DEF="o22" translation="11167.42 22155.424 3000" rotation="0 0 1  0" scale="1 1 1" scaleOrientation="0 0 1  0" center="0 0 0" />
        </Group>
        <Group DEF="o23">
          <Transform DEF="o24" translation="9507.4199 25120.424 3000" rotation="0 0 1  0" scale="1 1 1" scaleOrientation="0 0 1  0" center="0 0 0" />
        </Group>
        <Group DEF="o25">
          <Transform DEF="o26" translation="11167.42 25120.424 3000" rotation="0 0 1  0" scale="1 1 1" scaleOrientation="0 0 1  0" center="0 0 0" />
        </Group>
        <Group DEF="o27">
          <Transform DEF="o28" translation="17230.596 9698.4756 3000" rotation="-0 -0 -1.4542203e-006  6.2831855" scale="1 1 1" scaleOrientation="0 0 1  0" center="0 0 0" />
        </Group>
        <Group DEF="o29">
          <Transform DEF="o30" translation="14896.92 9330.5674 3000" rotation="-0 -0 -1.8098054e-006  6.2831855" scale="1 1 1" scaleOrientation="0 0 1  0" center="0 0 0" />
        </Group>
        <Group DEF="o31">
          <Transform DEF="o32" translation="14896.92 10905.856 3000" rotation="-0 -0 -1.8098054e-006  6.2831855" scale="1 1 1" scaleOrientation="0 0 1  0" center="0 0 0" />
        </Group>
        <Group DEF="o33">
          <Transform DEF="o34" translation="14896.92 12526 3000" rotation="-0 -0 -1.4593001e-006  6.2831855" scale="1 1 1" scaleOrientation="0 0 1  0" center="0 0 0" />
        </Group>
        <Group DEF="o35">
          <Transform DEF="o36" translation="14896.92 13951 3000" rotation="-0 -0 -1.4593001e-006  6.2831855" scale="1 1 1" scaleOrientation="0 0 1  0" center="0 0 0" />
        </Group>
        <Group DEF="o37">
          <Transform DEF="o38" translation="14088.223 4230.4233 3000" rotation="0 0 1  0" scale="1 1 1" scaleOrientation="0 0 1  0" center="0 0 0" />
        </Group>
        <Group DEF="o39">
          <Transform DEF="o40" translation="18111.9 4230.4233 3000" rotation="0 0 1  0" scale="1 1 1" scaleOrientation="0 0 1  0" center="0 0 0" />
        </Group>
        <Group DEF="o41">
          <Transform DEF="o42" translation="22135.58 4230.4233 3000" rotation="0 0 1  0" scale="1 1 1" scaleOrientation="0 0 1  0" center="0 0 0" />
        </Group>
        <Group DEF="o43">
          <Transform DEF="o44" translation="14088.223 7025.4233 3000" rotation="0 0 1  0" scale="1 1 1" scaleOrientation="0 0 1  0" center="0 0 0" />
        </Group>
        <Group DEF="o45">
          <Transform DEF="o46" translation="18111.9 7025.4233 3000" rotation="0 0 1  0" scale="1 1 1" scaleOrientation="0 0 1  0" center="0 0 0" />
        </Group>
        <Group DEF="o47">
          <Transform DEF="o48" translation="22135.58 7025.4233 3000" rotation="0 0 1  0" scale="1 1 1" scaleOrientation="0 0 1  0" center="0 0 0" />
        </Group>
        <Group DEF="o49">
          <Transform DEF="o50" translation="18839.086 23060.605 3000" rotation="0 0 1  0" scale="1 1 1" scaleOrientation="0 0 1  0" center="0 0 0" />
        </Group>
        <Group DEF="o51">
          <Transform DEF="o52" translation="20962.42 23060.605 3000" rotation="0 0 1  0" scale="1 1 1" scaleOrientation="0 0 1  0" center="0 0 0" />
        </Group>
        <Group DEF="o53">
          <Transform DEF="o54" translation="23085.754 23060.605 3000" rotation="0 0 1  0" scale="1 1 1" scaleOrientation="0 0 1  0" center="0 0 0" />
        </Group>
        <Group DEF="o55">
          <Transform DEF="o56" translation="18839.086 25254.818 3000" rotation="0 0 1  0" scale="1 1 1" scaleOrientation="0 0 1  0" center="0 0 0" />
        </Group>
        <Group DEF="o57">
          <Transform DEF="o58" translation="20962.42 25254.818 3000" rotation="0 0 1  0" scale="1 1 1" scaleOrientation="0 0 1  0" center="0 0 0" />
        </Group>
        <Group DEF="o59">
          <Transform DEF="o60" translation="23085.754 25254.818 3000" rotation="0 0 1  0" scale="1 1 1" scaleOrientation="0 0 1  0" center="0 0 0" />
        </Group>
        <Group DEF="o61">
          <Transform DEF="o62" translation="14159.42 18143.479 3000" rotation="0 0 1  0" scale="1 1 1" scaleOrientation="0 0 1  0" center="0 0 0" />
        </Group>
        <Group DEF="o63">
          <Transform DEF="o64" translation="18822.42 20033.5 3000" rotation="0 0 1  0" scale="1 1 1" scaleOrientation="0 0 1  0" center="0 0 0" />
        </Group>
        <Group DEF="o65">
          <Transform DEF="o66" translation="20672.418 20033.5 3000" rotation="0 0 1  0" scale="1 1 1" scaleOrientation="0 0 1  0" center="0 0 0" />
        </Group>
        <Group DEF="o67">
          <Transform DEF="o68" translation="18822.42 13420.146 3000" rotation="0 0 1  0" scale="1 1 1" scaleOrientation="0 0 1  0" center="0 0 0" />
        </Group>
        <Group DEF="o69">
          <Transform DEF="o70" translation="20672.42 13420.146 3000" rotation="0 0 1  0" scale="1 1 1" scaleOrientation="0 0 1  0" center="0 0 0" />
        </Group>
        <Group DEF="o71">
          <Transform DEF="o72" translation="18822.42 15662.383 3000" rotation="0 0 1  0" scale="1 1 1" scaleOrientation="0 0 1  0" center="0 0 0" />
        </Group>
        <Group DEF="o73">
          <Transform DEF="o74" translation="20672.42 15662.383 3000" rotation="0 0 1  0" scale="1 1 1" scaleOrientation="0 0 1  0" center="0 0 0" />
        </Group>
        <Group DEF="o75">
          <Transform DEF="o76" translation="14159.421 25184.424 3000" rotation="0 0 1  0" scale="1 1 1" scaleOrientation="0 0 1  0" center="0 0 0" />
        </Group>
        <Group DEF="o77">
          <Transform DEF="o78" translation="-205 -200 0" rotation="0 0 1  0" scale="1 1 1" scaleOrientation="0 0 1  0" center="0 0 0" />
        </Group>
        <Group DEF="o79">
          <Transform DEF="o80" translation="0 0 0" rotation="0 0 1  0" scale="1 1 1" scaleOrientation="0 0 1  0" center="0 0 0" />
        </Group>
        <Group DEF="o81">
          <Transform DEF="o82" translation="0 0 0" rotation="0 0 1  0" scale="1 1 1" scaleOrientation="0 0 1  0" center="0 0 0" />
        </Group>
        <Group DEF="o83">
          <Transform DEF="o84" translation="0 0 0" rotation="0 0 1  0" scale="1 1 1" scaleOrientation="0 0 1  0" center="0 0 0">
            <Group DEF="o85" />
          </Transform>
        </Group>
        <Group DEF="o86">
          <Transform DEF="o87" translation="0 0 0" rotation="0 0 1  0" scale="1 1 1" scaleOrientation="0 0 1  0" center="0 0 0">
            <Group DEF="o88" />
          </Transform>
        </Group>
      </Group>
    </Group>
  </Transform><PointLight DEF="Clone_Light" color="1.0000 1.0000 1.0000" intensity="1.2000" radius="12.0000" location="22.932419 3.000000 -15.715147" attenuation="1 0 0" /><PointLight DEF="Clone001_Light" color="1.0000 1.0000 1.0000" intensity="1.2000" radius="12.0000" location="22.932419 3.000000 -17.807382" attenuation="1 0 0" /><PointLight DEF="Clone002_Light" color="1.0000 1.0000 1.0000" intensity="1.2000" radius="12.0000" location="13.143420 3.000000 -20.601823" attenuation="1 0 0" /><PointLight DEF="Clone003_Light" color="1.0000 1.0000 1.0000" intensity="1.2000" radius="12.0000" location="15.175420 3.000000 -20.601823" attenuation="1 0 0" /><PointLight DEF="Clone004_Light" color="1.0000 1.0000 1.0000" intensity="1.2000" radius="12.0000" location="13.143420 3.000000 -22.798556" attenuation="1 0 0" /><PointLight DEF="Clone005_Light" color="1.0000 1.0000 1.0000" intensity="1.2000" radius="12.0000" location="15.175420 3.000000 -22.798556" attenuation="1 0 0" /><PointLight DEF="Clone006_Light" color="1.0000 1.0000 1.0000" intensity="1.2000" radius="12.0000" location="19.139087 3.000000 -9.740976" attenuation="1 0 0" /><PointLight DEF="Clone007_Light" color="1.0000 1.0000 1.0000" intensity="1.2000" radius="12.0000" location="21.002420 3.000000 -9.758476" attenuation="1 0 0" /><PointLight DEF="Clone008_Light" color="1.0000 1.0000 1.0000" intensity="1.2000" radius="12.0000" location="22.870753 3.000000 -9.758476" attenuation="1 0 0" /><PointLight DEF="Clone009_Light" color="1.0000 1.0000 1.0000" intensity="1.2000" radius="12.0000" location="9.507420 3.000000 -22.155423" attenuation="1 0 0" /><PointLight DEF="Clone010_Light" color="1.0000 1.0000 1.0000" intensity="1.2000" radius="12.0000" location="11.167420 3.000000 -22.155423" attenuation="1 0 0" /><PointLight DEF="Clone011_Light" color="1.0000 1.0000 1.0000" intensity="1.2000" radius="12.0000" location="9.507420 3.000000 -25.120423" attenuation="1 0 0" /><PointLight DEF="Clone012_Light" color="1.0000 1.0000 1.0000" intensity="1.2000" radius="12.0000" location="11.167420 3.000000 -25.120423" attenuation="1 0 0" /><PointLight DEF="Clone013_Light" color="1.0000 1.0000 1.0000" intensity="1.2000" radius="12.0000" location="17.230596 3.000000 -9.698476" attenuation="1 0 0" /><PointLight DEF="Clone014_Light" color="1.0000 1.0000 1.0000" intensity="1.2000" radius="12.0000" location="14.896920 3.000000 -9.330568" attenuation="1 0 0" /><PointLight DEF="Clone015_Light" color="1.0000 1.0000 1.0000" intensity="1.2000" radius="12.0000" location="14.896920 3.000000 -10.905856" attenuation="1 0 0" /><PointLight DEF="Clone016_Light" color="1.0000 1.0000 1.0000" intensity="1.2000" radius="12.0000" location="14.896920 3.000000 -12.526000" attenuation="1 0 0" /><PointLight DEF="Clone017_Light" color="1.0000 1.0000 1.0000" intensity="1.2000" radius="12.0000" location="14.896920 3.000000 -13.951000" attenuation="1 0 0" /><PointLight DEF="Clone018_Light" color="1.0000 1.0000 1.0000" intensity="1.2000" radius="12.0000" location="14.088222 3.000000 -4.230423" attenuation="1 0 0" /><PointLight DEF="Clone019_Light" color="1.0000 1.0000 1.0000" intensity="1.2000" radius="12.0000" location="18.111901 3.000000 -4.230423" attenuation="1 0 0" /><PointLight DEF="Clone020_Light" color="1.0000 1.0000 1.0000" intensity="1.2000" radius="12.0000" location="22.135581 3.000000 -4.230423" attenuation="1 0 0" /><PointLight DEF="Clone021_Light" color="1.0000 1.0000 1.0000" intensity="1.2000" radius="12.0000" location="14.088222 3.000000 -7.025423" attenuation="1 0 0" /><PointLight DEF="Clone022_Light" color="1.0000 1.0000 1.0000" intensity="1.2000" radius="12.0000" location="18.111901 3.000000 -7.025423" attenuation="1 0 0" /><PointLight DEF="Clone023_Light" color="1.0000 1.0000 1.0000" intensity="1.2000" radius="12.0000" location="22.135581 3.000000 -7.025423" attenuation="1 0 0" /><PointLight DEF="Clone024_Light" color="1.0000 1.0000 1.0000" intensity="1.2000" radius="12.0000" location="18.839087 3.000000 -23.060606" attenuation="1 0 0" /><PointLight DEF="Clone025_Light" color="1.0000 1.0000 1.0000" intensity="1.2000" radius="12.0000" location="20.962420 3.000000 -23.060606" attenuation="1 0 0" /><PointLight DEF="Clone026_Light" color="1.0000 1.0000 1.0000" intensity="1.2000" radius="12.0000" location="23.085753 3.000000 -23.060606" attenuation="1 0 0" /><PointLight DEF="Clone027_Light" color="1.0000 1.0000 1.0000" intensity="1.2000" radius="12.0000" location="18.839087 3.000000 -25.254818" attenuation="1 0 0" /><PointLight DEF="Clone028_Light" color="1.0000 1.0000 1.0000" intensity="1.2000" radius="12.0000" location="20.962420 3.000000 -25.254818" attenuation="1 0 0" /><PointLight DEF="Clone029_Light" color="1.0000 1.0000 1.0000" intensity="1.2000" radius="12.0000" location="23.085753 3.000000 -25.254818" attenuation="1 0 0" /><PointLight DEF="Clone030_Light" color="1.0000 1.0000 1.0000" intensity="1.2000" radius="12.0000" location="14.159420 3.000000 -18.143478" attenuation="1 0 0" /><PointLight DEF="Clone031_Light" color="1.0000 1.0000 1.0000" intensity="1.2000" radius="12.0000" location="18.822420 3.000000 -20.033499" attenuation="1 0 0" /><PointLight DEF="Clone032_Light" color="1.0000 1.0000 1.0000" intensity="1.2000" radius="12.0000" location="20.672419 3.000000 -20.033499" attenuation="1 0 0" /><PointLight DEF="Clone033_Light" color="1.0000 1.0000 1.0000" intensity="1.2000" radius="12.0000" location="18.822420 3.000000 -13.420147" attenuation="1 0 0" /><PointLight DEF="Clone034_Light" color="1.0000 1.0000 1.0000" intensity="1.2000" radius="12.0000" location="20.672420 3.000000 -13.420147" attenuation="1 0 0" /><PointLight DEF="Clone035_Light" color="1.0000 1.0000 1.0000" intensity="1.2000" radius="12.0000" location="18.822420 3.000000 -15.662382" attenuation="1 0 0" /><PointLight DEF="Clone036_Light" color="1.0000 1.0000 1.0000" intensity="1.2000" radius="12.0000" location="20.672420 3.000000 -15.662382" attenuation="1 0 0" /><PointLight DEF="Clone037_Light" color="1.0000 1.0000 1.0000" intensity="1.2000" radius="12.0000" location="14.159421 3.000000 -25.184423" attenuation="1 0 0" /></Scene>
</X3D>
